# File produced by Open Asset Import Library (http://www.assimp.sf.net)
# (assimp v3.1.128981410)

mtllib Knife_Final.mtl

# vertex positions
v -38.550034 15.018355 0.870815
v -38.550034 13.124236 0.870815
v -30.550034 13.124236 0.870815
v -30.550034 15.018355 0.870815
v -38.550034 11.696899 0.870815
v -30.550034 11.696899 0.870815
v -30.550034 10.803167 0.870815
v -38.550034 10.803167 0.870815
v -38.550034 10.269563 0.870815
v -30.550034 10.269563 0.870815
v -11.352079 13.124236 0.870815
v -11.352079 15.018355 0.870815
v -11.352079 11.696899 0.870815
v -11.352079 10.803167 0.870815
v -11.352079 10.269563 0.870815
v -5.842168 12.037434 0.491267
v -5.842168 15.000000 0.527220
v -5.842168 8.333333 0.253908
v -5.842168 5.451019 0.088696
v -5.842168 3.724901 0.000000
v 5.639415 15.000000 0.527220
v 5.639415 11.852050 0.491267
v 17.120998 11.666667 0.491267
v 17.120998 15.000000 0.527220
v 5.639415 8.333333 0.253908
v 17.120998 8.333333 0.253908
v 17.120998 5.374873 0.088696
v 5.639415 5.412946 0.088696
v 5.639415 3.117421 0.000000
v 17.120998 4.161196 0.000000
v 34.084961 11.666667 0.491267
v 36.883827 15.000000 0.527220
v 30.950201 8.333333 0.253908
v 29.452269 6.725895 0.000000
v 32.940247 8.333333 0.117896
v 38.674492 15.000000 0.240020
v 36.404430 11.666667 0.223955
v 36.404430 11.666667 -0.223955
v 38.674492 15.000000 -0.240020
v 32.940247 8.333333 -0.117896
v 36.965115 15.000000 -0.240020
v 34.501080 11.666667 -0.511155
v 17.120998 11.666667 -0.511155
v 17.120998 15.000000 -0.240020
v 31.382656 8.333333 -0.273795
v 17.120998 8.333333 -0.273795
v 5.639415 11.901564 -0.511155
v 5.639415 15.000000 -0.240020
v 5.639415 8.333333 -0.273795
v 5.639415 5.412946 -0.108584
v 17.120998 5.374873 -0.108584
v -5.842168 15.000000 -0.240020
v -5.842168 12.136461 -0.511155
v -11.352079 13.124236 -0.870815
v -11.352079 15.018355 -0.870815
v -5.842168 8.333333 -0.273795
v -11.352079 11.696899 -0.870815
v -11.352079 10.803167 -0.870815
v -5.842168 5.451019 -0.108584
v -11.352079 10.269563 -0.870815
v -30.550034 13.124236 -0.870815
v -30.550034 15.018355 -0.870815
v -30.550034 11.696899 -0.870815
v -30.550034 10.803167 -0.870815
v -30.550034 10.269563 -0.870815
v -38.550034 13.124236 -0.870815
v -38.550034 15.018355 -0.870815
v -38.550034 11.696899 -0.870815
v -38.550034 10.803167 -0.870815
v -38.550034 10.269563 -0.870815

# UV coordinates
vt 0.154324 0.998008
vt 0.129894 0.998008
vt 0.129894 0.894827
vt 0.154324 0.894827
vt 0.111485 0.998008
vt 0.111485 0.894827
vt 0.099958 0.894827
vt 0.099958 0.998008
vt 0.093076 0.998008
vt 0.093076 0.894827
vt 0.129894 0.647218
vt 0.154324 0.647218
vt 0.111485 0.647218
vt 0.099958 0.647218
vt 0.093076 0.647218
vt 0.115877 0.576153
vt 0.154087 0.576153
vt 0.068103 0.576153
vt 0.030928 0.576153
vt 0.008665 0.576153
vt 0.154087 0.428067
vt 0.113486 0.428067
vt 0.111095 0.279982
vt 0.154087 0.279982
vt 0.068103 0.428067
vt 0.068103 0.279982
vt 0.029946 0.279982
vt 0.030437 0.428067
vt 0.000830 0.428067
vt 0.014292 0.279982
vt 0.111095 0.061186
vt 0.154087 0.025088
vt 0.068103 0.101617
vt 0.047371 0.120937
vt 0.068103 0.075951
vt 0.386686 0.001992
vt 0.386478 0.031271
vt 0.380701 0.031271
vt 0.380494 0.001992
vt 0.385110 0.075951
vt 0.382069 0.075951
vt 0.383590 0.120937
vt 0.161799 0.024039
vt 0.204791 0.055819
vt 0.204791 0.279982
vt 0.161799 0.279982
vt 0.247783 0.096040
vt 0.247783 0.279982
vt 0.247783 0.075950
vt 0.268516 0.120937
vt 0.201761 0.428067
vt 0.161799 0.428067
vt 0.247783 0.428067
vt 0.315056 0.428067
vt 0.285449 0.428067
vt 0.285941 0.279982
vt 0.301594 0.279982
vt 0.161799 0.576153
vt 0.198732 0.576153
vt 0.185992 0.647218
vt 0.161562 0.647218
vt 0.247783 0.576153
vt 0.204401 0.647218
vt 0.215928 0.647218
vt 0.284958 0.576153
vt 0.307221 0.576153
vt 0.222810 0.647218
vt 0.185992 0.894827
vt 0.161562 0.894827
vt 0.204401 0.894827
vt 0.215928 0.894827
vt 0.222810 0.894827
vt 0.185992 0.998008
vt 0.161562 0.998008
vt 0.204401 0.998008
vt 0.215928 0.998008
vt 0.222810 0.998008
vt 0.393265 0.063240
vt 0.393265 0.038811
vt 0.415728 0.038811
vt 0.415728 0.063240
vt 0.393265 0.020401
vt 0.415728 0.020401
vt 0.415728 0.008874
vt 0.393265 0.008874
vt 0.393265 0.001992
vt 0.415728 0.001992
vt 0.373766 0.423847
vt 0.351303 0.423847
vt 0.351303 0.320666
vt 0.373766 0.320666
vt 0.351303 0.073057
vt 0.373766 0.073057
vt 0.362535 0.001992
vt 0.344575 0.998008
vt 0.322112 0.998008
vt 0.322112 0.894827
vt 0.344575 0.894827
vt 0.322112 0.647218
vt 0.344575 0.647218
vt 0.326544 0.576153
vt 0.336439 0.576153
vt 0.336439 0.428067
vt 0.326544 0.428067
vt 0.326544 0.279982
vt 0.336439 0.279982
vt 0.326544 0.025088
vt 0.336439 0.024039
vt 0.111095 0.031271
vt 0.154087 0.001992
vt 0.330248 0.001992
vt 0.336439 0.001992
vt 0.161799 0.001992
vt 0.204791 0.031271

# vertex normals
vn 0.000000 0.000000 1.000000
vn 0.020439 -0.007503 0.999763
vn 0.017422 -0.001988 0.999846
vn 0.028303 -0.016726 0.999460
vn 0.038441 -0.017400 0.999109
vn 0.052133 -0.019013 0.998459
vn 0.018015 -0.037785 0.999124
vn 0.017875 -0.010558 0.999785
vn 0.019664 -0.057660 0.998143
vn 0.020477 -0.049411 0.998569
vn 0.010078 -0.043560 0.999000
vn -0.000092 -0.011420 0.999935
vn -0.000331 -0.040951 0.999161
vn -0.000135 -0.039507 0.999219
vn -0.000034 -0.010902 0.999941
vn -0.000339 -0.062398 0.998051
vn -0.000173 -0.064883 0.997893
vn 0.004935 -0.070520 0.997498
vn 0.000086 -0.052786 0.998606
vn 0.000347 -0.047018 0.998894
vn 0.010014 -0.083299 0.996474
vn 0.011616 -0.037038 0.999246
vn 0.030261 -0.033115 0.998993
vn 0.007134 -0.081706 0.996631
vn 0.022265 -0.133113 0.990851
vn 0.091212 -0.145068 0.985208
vn 0.826535 -0.562886 0.000000
vn 0.768901 -0.639368 0.000000
vn 0.641483 -0.767137 0.000000
vn 0.418544 -0.908197 0.000000
vn 0.014769 0.062680 -0.997924
vn 0.010777 0.028075 -0.999548
vn 0.000017 0.008378 -0.999965
vn 0.000321 0.082170 -0.996618
vn 0.007842 -0.083296 -0.996494
vn -0.000210 -0.064778 -0.997900
vn 0.123898 -0.178052 -0.976190
vn 0.025853 -0.152288 -0.987998
vn 0.000052 0.005064 -0.999987
vn 0.000892 0.087174 -0.996193
vn -0.000416 -0.061924 -0.998081
vn 0.000425 -0.057529 -0.998344
vn 0.000118 -0.056908 -0.998379
vn 0.005699 -0.076655 -0.997041
vn 0.011719 -0.097556 -0.995161
vn 0.026814 0.081282 -0.996330
vn 0.021331 0.003843 -0.999765
vn 0.024874 0.002752 -0.999687
vn 0.025142 0.015069 -0.999570
vn 0.018750 -0.057063 -0.998195
vn 0.027402 -0.016640 -0.999486
vn 0.036451 -0.018010 -0.999173
vn 0.018643 -0.053755 -0.998380
vn 0.008637 -0.053304 -0.998541
vn 0.046665 -0.023281 -0.998639
vn 0.000000 0.000000 -1.000000
vn -1.000000 0.000000 0.000000
vn 0.000000 -1.000000 0.000000
vn -0.139206 -0.990263 0.000000
vn -0.764991 -0.644041 0.000000
vn 0.000000 1.000000 0.000000
vn 0.000552 1.000000 0.000000
vn 0.000536 1.000000 0.000000
vn 0.001497 0.999999 0.000000
vn 0.001522 0.999999 0.000000
vn 0.121822 -0.117887 0.985526
vn 0.132909 -0.108743 0.985145
vn 0.079234 -0.018131 -0.996691
vn 0.091454 -0.058993 -0.994060

# Mesh
g pCube1
usemtl initialShadingGroup
f 4/4/1 1/1/1 2/2/1
f 2/2/1 3/3/1 4/4/1
f 3/3/1 2/2/1 5/5/1
f 5/5/1 6/6/1 3/3/1
f 10/10/1 7/7/1 8/8/1
f 8/8/1 9/9/1 10/10/1
f 12/12/3 4/4/1 3/3/1
f 3/3/1 11/11/2 12/12/3
f 11/11/2 3/3/1 6/6/1
f 6/6/1 13/13/4 11/11/2
f 15/15/6 14/14/5 7/7/1
f 7/7/1 10/10/1 15/15/6
f 17/17/8 12/12/3 11/11/2
f 11/11/2 16/16/7 17/17/8
f 16/16/7 11/11/2 13/13/4
f 13/13/4 18/18/9 16/16/7
f 20/20/11 19/19/10 14/14/5
f 14/14/5 15/15/6 20/20/11
f 24/24/15 21/21/12 22/22/13
f 22/22/13 23/23/14 24/24/15
f 23/23/14 22/22/13 25/25/16
f 25/25/16 26/26/17 23/23/14
f 30/30/21 27/27/18 28/28/19
f 28/28/19 29/29/20 30/30/21
f 32/32/23 24/24/15 23/23/14
f 23/23/14 31/31/22 32/32/23
f 31/31/22 23/23/14 26/26/17
f 26/26/17 33/33/24 31/31/22
f 33/33/24 34/34/25 35/35/26
f 39/39/27 36/36/27 37/37/28
f 37/37/28 38/38/28 39/39/27
f 38/38/28 37/37/28 35/40/29
f 35/40/29 40/41/29 38/38/28
f 34/42/30 40/41/29 35/40/29
f 44/46/34 41/43/31 42/44/32
f 42/44/32 43/45/33 44/46/34
f 43/45/33 42/44/32 45/47/35
f 45/47/35 46/48/36 43/45/33
f 40/49/37 34/50/38 45/47/35
f 48/52/40 44/46/34 43/45/33
f 43/45/33 47/51/39 48/52/40
f 47/51/39 43/45/33 46/48/36
f 46/48/36 49/53/41 47/51/39
f 30/57/45 29/54/42 50/55/43
f 50/55/43 51/56/44 30/57/45
f 55/61/49 52/58/46 53/59/47
f 53/59/47 54/60/48 55/61/49
f 54/60/48 53/59/47 56/62/50
f 56/62/50 57/63/51 54/60/48
f 60/67/55 58/64/52 59/65/53
f 59/65/53 20/66/54 60/67/55
f 62/69/56 55/61/49 54/60/48
f 54/60/48 61/68/56 62/69/56
f 61/68/56 54/60/48 57/63/51
f 57/63/51 63/70/56 61/68/56
f 65/72/56 64/71/56 58/64/52
f 58/64/52 60/67/55 65/72/56
f 67/74/56 62/69/56 61/68/56
f 61/68/56 66/73/56 67/74/56
f 66/73/56 61/68/56 63/70/56
f 63/70/56 68/75/56 66/73/56
f 70/77/56 69/76/56 64/71/56
f 64/71/56 65/72/56 70/77/56
f 1/81/57 67/78/57 66/79/57
f 66/79/57 2/80/57 1/81/57
f 2/80/57 66/79/57 68/82/57
f 68/82/57 5/83/57 2/80/57
f 9/87/57 8/84/57 69/85/57
f 69/85/57 70/86/57 9/87/57
f 10/91/58 9/88/58 70/89/58
f 70/89/58 65/90/58 10/91/58
f 15/93/59 10/91/58 65/90/58
f 65/90/58 60/92/59 15/93/59
f 15/93/59 60/92/59 20/94/60
f 62/98/61 67/95/61 1/96/61
f 1/96/61 4/97/61 62/98/61
f 55/100/63 62/98/61 4/97/61
f 4/97/61 12/99/62 55/100/63
f 52/102/65 55/100/63 12/99/62
f 12/99/62 17/101/64 52/102/65
f 44/106/61 48/103/61 21/104/61
f 21/104/61 24/105/61 44/106/61
f 41/108/61 44/106/61 24/105/61
f 24/105/61 32/107/61 41/108/61
f 5/83/57 68/82/57 69/85/57
f 69/85/57 8/84/57 5/83/57
f 68/75/56 63/70/56 64/71/56
f 64/71/56 69/76/56 68/75/56
f 63/70/56 57/63/51 58/64/52
f 58/64/52 64/71/56 63/70/56
f 57/63/51 56/62/50 59/65/53
f 59/65/53 58/64/52 57/63/51
f 49/53/41 46/48/36 51/56/44
f 51/56/44 50/55/43 49/53/41
f 45/47/35 51/56/44 46/48/36
f 26/26/17 27/27/18 33/33/24
f 26/26/17 25/25/16 28/28/19
f 28/28/19 27/27/18 26/26/17
f 18/18/9 13/13/4 14/14/5
f 14/14/5 19/19/10 18/18/9
f 13/13/4 6/6/1 7/7/1
f 7/7/1 14/14/5 13/13/4
f 6/6/1 5/5/1 8/8/1
f 8/8/1 7/7/1 6/6/1
f 37/109/66 31/31/22 33/33/24
f 33/33/24 35/35/26 37/109/66
f 36/110/67 32/32/23 31/31/22
f 31/31/22 37/109/66 36/110/67
f 39/112/61 41/108/61 32/107/61
f 32/107/61 36/111/61 39/112/61
f 41/43/31 39/113/68 38/114/69
f 38/114/69 42/44/32 41/43/31
f 42/44/32 38/114/69 40/49/37
f 40/49/37 45/47/35 42/44/32
f 21/21/12 17/17/8 16/16/7
f 16/16/7 22/22/13 21/21/12
f 22/22/13 16/16/7 18/18/9
f 18/18/9 25/25/16 22/22/13
f 25/25/16 18/18/9 19/19/10
f 19/19/10 28/28/19 25/25/16
f 20/20/11 29/29/20 28/28/19
f 28/28/19 19/19/10 20/20/11
f 20/66/54 59/65/53 50/55/43
f 50/55/43 29/54/42 20/66/54
f 56/62/50 49/53/41 50/55/43
f 50/55/43 59/65/53 56/62/50
f 53/59/47 47/51/39 49/53/41
f 49/53/41 56/62/50 53/59/47
f 52/58/46 48/52/40 47/51/39
f 47/51/39 53/59/47 52/58/46
f 48/103/61 52/102/65 17/101/64
f 17/101/64 21/104/61 48/103/61
f 33/33/24 27/27/18 30/30/21
f 30/30/21 34/34/25 33/33/24
f 51/56/44 45/47/35 34/50/38
f 34/50/38 30/57/45 51/56/44
