# File produced by Open Asset Import Library (http://www.assimp.sf.net)
# (assimp v3.1.128981410)

mtllib Pedastol.mtl

# vertex positions
v 2.124592 41.654613 138.687561
v 2.124592 34.739689 138.687561
v 24.748308 34.739689 138.687561
v 24.748308 41.654613 138.687561
v 2.124592 45.915543 -138.687561
v 2.124592 45.915543 108.247299
v 24.748308 45.915543 108.247299
v 24.748308 45.915543 -138.687561
v 2.124592 39.000618 -138.687561
v 24.748308 39.000618 -138.687561
v 24.748308 39.000618 108.247299
v 2.124592 39.000618 108.247299
v -24.748308 33.317215 -138.687561
v -24.748308 33.317215 108.247299
v -24.748308 40.232140 108.247299
v -24.748308 40.232140 -138.687561
v -24.748308 29.056284 138.687561
v -24.748308 35.971210 138.687561

# UV coordinates
vt 0.091270 0.124953
vt 0.125356 0.065630
vt 0.152203 0.115872
vt 0.147147 0.128610
vt 0.788911 0.897548
vt 0.113496 0.236304
vt 0.184420 0.187227
vt 0.815365 0.840740
vt 0.889046 0.803796
vt 0.825101 0.824544
vt 0.205111 0.165050
vt 0.256696 0.086398
vt 0.739752 0.999999
vt 0.000000 0.310144
vt 0.021717 0.294168
vt 0.757660 0.980914
vt 0.971064 0.768687
vt 0.317664 0.000000
vt 0.024612 0.008297
vt 0.036701 0.054711

# vertex normals
vn 0.000000 0.000000 1.000000
vn 0.000000 1.000000 0.000000
vn 0.000000 0.000000 -1.000000
vn 0.000000 -1.000000 0.000000
vn 1.000000 0.000000 0.000000
vn -1.000000 0.000000 0.000000
vn 0.206915 -0.978359 0.000000
vn -0.206915 0.978359 0.000000
vn -0.205002 0.969312 0.135681
vn 0.000000 0.990345 0.138625
vn 0.000000 -0.990345 -0.138625
vn 0.205002 -0.969312 -0.135681

# Mesh
g pCube1
usemtl initialShadingGroup
f 4/4/1 1/1/1 2/2/1
f 2/2/1 3/3/1 4/4/1
f 8/8/2 5/5/2 6/6/2
f 6/6/2 7/7/2 8/8/2
f 10/10/3 9/9/3 5/5/3
f 5/5/3 8/8/3 10/10/3
f 10/10/4 11/11/4 12/12/4
f 12/12/4 9/9/4 10/10/4
f 8/8/5 7/7/5 11/11/5
f 11/11/5 10/10/5 8/8/5
f 16/16/6 13/13/6 14/14/6
f 14/14/6 15/15/6 16/16/6
f 14/18/7 13/17/7 9/9/7
f 9/9/7 12/12/7 14/18/7
f 13/17/3 16/16/3 5/5/3
f 5/5/3 9/9/3 13/17/3
f 16/16/8 15/15/8 6/6/8
f 6/6/8 5/5/8 16/16/8
f 18/20/1 17/19/1 2/2/1
f 2/2/1 1/1/1 18/20/1
f 15/15/9 18/20/9 1/1/9
f 1/1/9 6/6/9 15/15/9
f 4/4/10 7/7/10 6/6/10
f 6/6/10 1/1/10 4/4/10
f 4/4/5 3/3/5 11/11/5
f 11/11/5 7/7/5 4/4/5
f 3/3/11 2/2/11 12/12/11
f 12/12/11 11/11/11 3/3/11
f 17/19/12 14/18/12 12/12/12
f 12/12/12 2/2/12 17/19/12
f 18/20/6 15/15/6 14/14/6
f 14/14/6 17/19/6 18/20/6
