# File produced by Open Asset Import Library (http://www.assimp.sf.net)
# (assimp v3.1.128981410)

mtllib Horn_002.mtl

# vertex positions
v -82.499992 157.365753 -2.093821
v -82.499992 159.459579 -2.961112
v -40.000008 123.575897 -23.890287
v -40.000008 106.682884 -16.893002
v -82.499992 161.553391 -2.093821
v -40.000008 140.468903 -16.893002
v -82.499992 162.420654 0.000002
v -40.000008 147.466187 0.000001
v -82.499992 161.553391 2.093824
v -40.000008 140.468903 16.893003
v -82.499992 159.459579 2.961115
v -40.000008 123.575897 23.890291
v -82.499992 157.365753 2.093824
v -40.000008 106.682877 16.893005
v -82.499992 156.498444 0.000002
v -40.000008 99.685585 0.000001
v 17.472668 101.635460 -36.949852
v 17.472668 75.507957 -26.127518
v 17.472668 127.762970 -26.127518
v 17.472668 138.585342 0.000001
v 17.472668 127.762970 26.127520
v 17.472668 101.635460 36.949856
v 17.472668 75.507957 26.127520
v 17.472668 64.685616 0.000001
v 78.645828 80.000000 -48.617744
v 78.645828 45.622055 -34.377941
v 78.645828 114.377937 -34.377941
v 78.645828 128.617752 0.000001
v 78.645828 114.377937 34.377945
v 78.645828 80.000000 48.617752
v 78.645828 45.622055 34.377945
v 78.645828 31.382244 0.000001
v 195.724670 80.000000 -78.491760
v 195.724670 24.497902 -55.502098
v 195.724670 135.502090 -55.502098
v 195.724670 158.491760 0.000000
v 195.724670 135.502090 55.502090
v 195.724670 80.000000 78.491760
v 195.724670 24.497902 55.502098
v 195.724670 1.508232 0.000000
v 195.724701 80.000008 -71.067688
v 195.724701 29.747520 -50.252472
v 195.724701 130.252472 -50.252472
v 195.724701 151.067780 -0.000004
v 195.724701 130.252472 50.252476
v 195.724701 80.000008 71.067696
v 195.724701 29.747517 50.252476
v 195.724701 8.932297 -0.000004
v -39.999992 123.575897 -18.339447
v -39.999992 110.607933 -12.967948
v 17.472664 81.578613 -20.056841
v 17.472664 101.635460 -28.364655
v -39.999992 105.236443 0.000001
v 17.472664 73.270798 -0.000001
v -39.999992 110.607933 12.967951
v 17.472664 81.578613 20.056841
v -39.999992 123.575897 18.339449
v 17.472664 101.635460 28.364656
v -39.999992 136.543869 12.967951
v 17.472664 121.692307 20.056839
v -39.999992 141.915359 0.000001
v 17.472664 130.000107 -0.000001
v -39.999992 136.543869 -12.967948
v 17.472664 121.692307 -20.056841
v 78.645828 80.000000 -37.321518
v 78.645828 106.390297 -26.390295
v 78.645828 117.321533 -0.000001
v 78.645828 106.390297 26.390295
v 78.645828 80.000000 37.321518
v 78.645828 53.609703 26.390299
v 78.645828 42.678482 -0.000001
v 78.645828 53.609703 -26.390295

# UV coordinates
vt 0.086217 0.102286
vt 0.089409 0.099905
vt 0.174024 0.157190
vt 0.166245 0.184025
vt 0.092428 0.097414
vt 0.174477 0.128907
vt 0.095812 0.094381
vt 0.177184 0.099939
vt 0.068492 0.114344
vt 0.072431 0.111210
vt 0.066362 0.198330
vt 0.039068 0.188881
vt 0.075805 0.109132
vt 0.092088 0.209593
vt 0.079203 0.107010
vt 0.119723 0.213656
vt 0.082738 0.104677
vt 0.146827 0.204735
vt 0.259197 0.218208
vt 0.236949 0.258355
vt 0.271742 0.174190
vt 0.284811 0.129739
vt 0.064875 0.304974
vt 0.019086 0.298321
vt 0.110361 0.311309
vt 0.156999 0.307378
vt 0.201438 0.289081
vt 0.340253 0.293508
vt 0.305957 0.341595
vt 0.366331 0.237745
vt 0.387130 0.179519
vt 0.081071 0.417624
vt 0.019721 0.415633
vt 0.143379 0.412794
vt 0.202257 0.399241
vt 0.257964 0.377036
vt 0.504016 0.416092
vt 0.440261 0.500137
vt 0.550328 0.326320
vt 0.583105 0.232553
vt 0.099575 0.633030
vt 0.000000 0.627150
vt 0.185443 0.600530
vt 0.269485 0.568894
vt 0.353340 0.536318
vt 0.534228 0.525684
vt 0.530680 0.536996
vt 0.441774 0.516309
vt 0.619455 0.561098
vt 0.613950 0.571398
vt 0.699318 0.613822
vt 0.689223 0.620684
vt 0.041194 0.713912
vt 0.108568 0.645565
vt 0.053091 0.716733
vt 0.190105 0.610111
vt 0.273217 0.578435
vt 0.356317 0.546212
vt 0.466739 0.953232
vt 0.444611 0.946281
vt 0.439303 0.840328
vt 0.472995 0.850281
vt 0.421060 0.946325
vt 0.403387 0.840994
vt 0.398798 0.954408
vt 0.369003 0.853200
vt 0.380206 0.968513
vt 0.340031 0.874029
vt 0.363749 0.984832
vt 0.314827 0.898694
vt 0.346284 0.999999
vt 0.287794 0.922013
vt 0.509171 0.971536
vt 0.487663 0.963059
vt 0.504719 0.865226
vt 0.537998 0.878162
vt 0.479997 0.739656
vt 0.524027 0.757114
vt 0.565660 0.779236
vt 0.226351 0.837832
vt 0.259442 0.804648
vt 0.298172 0.774730
vt 0.340743 0.751526
vt 0.386552 0.735496
vt 0.434196 0.731005
vt 0.038121 0.000000
vt 0.059633 0.005303
vt 0.017342 0.006350
vt 0.004036 0.023816
vt 0.001142 0.046216
vt 0.002930 0.068565
vt 0.000000 0.090509
vt 0.079433 0.014912
vt 0.100741 0.019371

# vertex normals
vn -0.614086 -0.302028 -0.729162
vn -0.444084 -0.342878 -0.827783
vn -0.380862 -0.353840 -0.854249
vn -0.130727 0.379399 -0.915951
vn -0.086866 0.381236 -0.920388
vn -0.071618 0.381700 -0.921508
vn 0.309160 0.878619 -0.363935
vn 0.188232 0.907365 -0.375842
vn 0.170971 0.910277 -0.377048
vn 0.309160 0.878619 0.363935
vn 0.170971 0.910277 0.377048
vn 0.188232 0.907365 0.375842
vn -0.130727 0.379399 0.915951
vn -0.071618 0.381700 0.921508
vn -0.086866 0.381236 0.920388
vn -0.614086 -0.302028 0.729162
vn -0.380862 -0.353840 0.854249
vn -0.444085 -0.342878 0.827782
vn -0.777176 -0.581382 0.240816
vn -0.567519 -0.760686 0.315086
vn -0.594325 -0.743007 0.307763
vn -0.777176 -0.581382 -0.240816
vn -0.594325 -0.743007 -0.307763
vn -0.567519 -0.760686 -0.315086
vn -0.315726 -0.363109 -0.876624
vn -0.308583 -0.364007 -0.878792
vn -0.051836 0.382168 -0.922638
vn -0.047338 0.382254 -0.922844
vn 0.145707 0.914020 -0.378599
vn 0.146332 0.913935 -0.378564
vn 0.146332 0.913935 0.378564
vn 0.145707 0.914020 0.378599
vn -0.047338 0.382254 0.922844
vn -0.051836 0.382168 0.922638
vn -0.308583 -0.364007 0.878792
vn -0.315726 -0.363109 0.876624
vn -0.463738 -0.818532 0.339046
vn -0.466807 -0.817042 0.338429
vn -0.466807 -0.817042 -0.338429
vn -0.463738 -0.818532 -0.339046
vn -0.248633 -0.370666 -0.894868
vn -0.243569 -0.371158 -0.896056
vn -0.178730 0.376521 -0.909004
vn -0.192890 0.375496 -0.906530
vn -0.135455 0.915365 -0.379156
vn -0.147544 0.913768 -0.378495
vn -0.147544 0.913768 0.378495
vn -0.135455 0.915365 0.379156
vn -0.192890 0.375496 0.906530
vn -0.178730 0.376521 0.909004
vn -0.243569 -0.371158 0.896056
vn -0.248633 -0.370666 0.894868
vn -0.284068 -0.885820 0.366918
vn -0.290909 -0.883923 0.366132
vn -0.290909 -0.883923 -0.366132
vn -0.284067 -0.885820 -0.366918
vn -0.229449 -0.372473 -0.899231
vn -0.229449 0.372473 -0.899231
vn -0.229449 0.899231 -0.372473
vn -0.229449 0.899231 0.372473
vn -0.229449 0.372473 0.899231
vn -0.229449 -0.372473 0.899231
vn -0.229449 -0.899231 0.372473
vn -0.229449 -0.899231 -0.372473
vn 1.000000 -0.000003 -0.000003
vn 1.000000 0.000000 -0.000004
vn 1.000000 0.000003 -0.000003
vn 1.000000 0.000004 0.000000
vn 1.000000 0.000003 0.000003
vn 1.000000 0.000000 0.000003
vn 1.000000 -0.000003 0.000002
vn 1.000000 -0.000004 0.000000
vn 0.394309 0.351677 0.849025
vn 0.334627 0.360622 0.870619
vn 0.270809 0.368384 0.889357
vn 0.277019 0.367707 0.887723
vn 0.561982 0.764187 0.316536
vn 0.534025 0.781112 0.323547
vn 0.432721 0.832903 0.345000
vn 0.435596 0.831623 0.344469
vn 0.534025 0.781112 -0.323547
vn 0.561982 0.764187 -0.316536
vn 0.435596 0.831623 -0.344469
vn 0.432721 0.832903 -0.345000
vn 0.334627 0.360622 -0.870619
vn 0.394309 0.351677 -0.849025
vn 0.277019 0.367707 -0.887723
vn 0.270809 0.368384 -0.889357
vn 0.014582 -0.382643 -0.923781
vn 0.013675 -0.382648 -0.923793
vn 0.007284 -0.382673 -0.923855
vn 0.004290 -0.382680 -0.923871
vn -0.231342 -0.898817 -0.372301
vn -0.254533 -0.893451 -0.370079
vn -0.188088 -0.907390 -0.375853
vn -0.188083 -0.907391 -0.375854
vn -0.254533 -0.893451 0.370079
vn -0.231342 -0.898817 0.372302
vn -0.188083 -0.907391 0.375854
vn -0.188088 -0.907390 0.375853
vn 0.013675 -0.382648 0.923793
vn 0.014583 -0.382642 0.923782
vn 0.004290 -0.382680 0.923871
vn 0.007284 -0.382673 0.923855
vn 0.211985 -0.373986 0.902883
vn 0.193990 -0.375414 0.906329
vn 0.168934 -0.910601 0.377184
vn 0.155704 -0.912611 0.378017
vn 0.155704 -0.912611 -0.378017
vn 0.168934 -0.910601 -0.377184
vn 0.193990 -0.375414 -0.906329
vn 0.211985 -0.373986 -0.902883
vn 0.258327 0.369694 -0.892521
vn 0.258055 0.369722 -0.892588
vn 0.298389 0.881792 -0.365250
vn 0.293646 0.883150 -0.365812
vn 0.293646 0.883150 0.365812
vn 0.298389 0.881792 0.365250
vn 0.258055 0.369722 0.892588
vn 0.258327 0.369694 0.892521
vn 0.257327 -0.369796 0.892768
vn 0.257327 -0.892767 0.369797
vn 0.257327 -0.892767 -0.369797
vn 0.257327 -0.369796 -0.892768
vn 0.257327 0.369796 -0.892768
vn 0.257327 0.892768 -0.369796
vn 0.257327 0.892768 0.369796
vn 0.257327 0.369796 0.892768
vn 0.549332 0.319771 0.771998
vn 0.744262 0.617048 0.255590
vn 0.744262 0.617048 -0.255589
vn 0.549332 0.319771 -0.771998
vn 0.549332 0.319772 -0.771998
vn 0.011191 -0.382659 -0.923822
vn -0.407136 -0.843842 -0.349530
vn -0.407135 -0.843842 0.349530
vn 0.011191 -0.382659 0.923822

# Mesh
g pCylinder1
usemtl initialShadingGroup
f 4/4/3 1/1/1 2/2/1
f 2/2/1 3/3/2 4/4/3
f 3/3/6 2/2/4 5/5/4
f 5/5/4 6/6/5 3/3/6
f 6/6/9 5/5/7 7/7/7
f 7/7/7 8/8/8 6/6/9
f 8/12/12 7/9/10 9/10/10
f 9/10/10 10/11/11 8/12/12
f 10/11/15 9/10/13 11/13/13
f 11/13/13 12/14/14 10/11/15
f 12/14/18 11/13/16 13/15/16
f 13/15/16 14/16/17 12/14/18
f 14/16/21 13/15/19 15/17/19
f 15/17/19 16/18/20 14/16/21
f 16/18/24 15/17/22 1/1/22
f 1/1/22 4/4/23 16/18/24
f 18/20/26 4/4/3 3/3/2
f 3/3/2 17/19/25 18/20/26
f 17/19/28 3/3/6 6/6/5
f 6/6/5 19/21/27 17/19/28
f 19/21/30 6/6/9 8/8/8
f 8/8/8 20/22/29 19/21/30
f 20/24/32 8/12/12 10/11/11
f 10/11/11 21/23/31 20/24/32
f 21/23/34 10/11/15 12/14/14
f 12/14/14 22/25/33 21/23/34
f 22/25/36 12/14/18 14/16/17
f 14/16/17 23/26/35 22/25/36
f 23/26/38 14/16/21 16/18/20
f 16/18/20 24/27/37 23/26/38
f 24/27/40 16/18/24 4/4/23
f 4/4/23 18/20/39 24/27/40
f 26/29/42 18/20/26 17/19/25
f 17/19/25 25/28/41 26/29/42
f 25/28/44 17/19/28 19/21/27
f 19/21/27 27/30/43 25/28/44
f 27/30/46 19/21/30 20/22/29
f 20/22/29 28/31/45 27/30/46
f 28/33/48 20/24/32 21/23/31
f 21/23/31 29/32/47 28/33/48
f 29/32/50 21/23/34 22/25/33
f 22/25/33 30/34/49 29/32/50
f 30/34/52 22/25/36 23/26/35
f 23/26/35 31/35/51 30/34/52
f 31/35/54 23/26/38 24/27/37
f 24/27/37 32/36/53 31/35/54
f 32/36/56 24/27/40 18/20/39
f 18/20/39 26/29/55 32/36/56
f 34/38/57 26/29/42 25/28/41
f 25/28/41 33/37/57 34/38/57
f 33/37/58 25/28/44 27/30/43
f 27/30/43 35/39/58 33/37/58
f 35/39/59 27/30/46 28/31/45
f 28/31/45 36/40/59 35/39/59
f 36/42/60 28/33/48 29/32/47
f 29/32/47 37/41/60 36/42/60
f 37/41/61 29/32/50 30/34/49
f 30/34/49 38/43/61 37/41/61
f 38/43/62 30/34/52 31/35/51
f 31/35/51 39/44/62 38/43/62
f 39/44/63 31/35/54 32/36/53
f 32/36/53 40/45/63 39/44/63
f 40/45/64 32/36/56 26/29/55
f 26/29/55 34/38/64 40/45/64
f 42/48/65 34/38/65 33/46/66
f 33/46/66 41/47/66 42/48/65
f 41/47/66 33/46/66 35/49/67
f 35/49/67 43/50/67 41/47/66
f 43/50/67 35/49/67 36/51/68
f 36/51/68 44/52/68 43/50/67
f 44/55/68 36/53/68 37/41/69
f 37/41/69 45/54/69 44/55/68
f 45/54/69 37/41/69 38/43/70
f 38/43/70 46/56/70 45/54/69
f 46/56/70 38/43/70 39/44/71
f 39/44/71 47/57/71 46/56/70
f 47/57/71 39/44/71 40/45/72
f 40/45/72 48/58/72 47/57/71
f 48/58/72 40/45/72 34/38/65
f 34/38/65 42/48/65 48/58/72
f 52/62/76 49/59/73 50/60/74
f 50/60/74 51/61/75 52/62/76
f 51/61/80 50/60/77 53/63/78
f 53/63/78 54/64/79 51/61/80
f 54/64/84 53/63/81 55/65/82
f 55/65/82 56/66/83 54/64/84
f 56/66/88 55/65/85 57/67/86
f 57/67/86 58/68/87 56/66/88
f 58/68/92 57/67/89 59/69/90
f 59/69/90 60/70/91 58/68/92
f 60/70/96 59/69/93 61/71/94
f 61/71/94 62/72/95 60/70/96
f 62/76/100 61/73/97 63/74/98
f 63/74/98 64/75/99 62/76/100
f 64/75/104 63/74/101 49/59/102
f 49/59/102 52/62/103 64/75/104
f 66/78/106 64/75/104 52/62/103
f 52/62/103 65/77/105 66/78/106
f 67/79/108 62/76/100 64/75/99
f 64/75/99 66/78/107 67/79/108
f 68/81/110 60/70/96 62/72/95
f 62/72/95 67/80/109 68/81/110
f 69/82/112 58/68/92 60/70/91
f 60/70/91 68/81/111 69/82/112
f 70/83/114 56/66/88 58/68/87
f 58/68/87 69/82/113 70/83/114
f 71/84/116 54/64/84 56/66/83
f 56/66/83 70/83/115 71/84/116
f 72/85/118 51/61/80 54/64/79
f 54/64/79 71/84/117 72/85/118
f 65/77/120 52/62/76 51/61/75
f 51/61/75 72/85/119 65/77/120
f 43/50/121 66/78/106 65/77/105
f 65/77/105 41/47/121 43/50/121
f 44/52/122 67/79/108 66/78/107
f 66/78/107 43/50/122 44/52/122
f 45/54/123 68/81/110 67/80/109
f 67/80/109 44/55/123 45/54/123
f 46/56/124 69/82/112 68/81/111
f 68/81/111 45/54/124 46/56/124
f 47/57/125 70/83/114 69/82/113
f 69/82/113 46/56/125 47/57/125
f 48/58/126 71/84/116 70/83/115
f 70/83/115 47/57/126 48/58/126
f 42/48/127 72/85/118 71/84/117
f 71/84/117 48/58/127 42/48/127
f 41/47/128 65/77/120 72/85/119
f 72/85/119 42/48/128 41/47/128
f 49/87/73 2/2/129 1/1/129
f 1/1/129 50/86/74 49/87/73
f 50/86/77 1/1/130 15/17/130
f 15/17/130 53/88/78 50/86/77
f 53/88/81 15/17/131 13/15/131
f 13/15/131 55/89/82 53/88/81
f 55/89/85 13/15/132 11/13/133
f 11/13/133 57/90/86 55/89/85
f 57/90/89 11/13/134 9/10/134
f 9/10/134 59/91/90 57/90/89
f 59/91/93 9/10/135 7/9/135
f 7/9/135 61/92/94 59/91/93
f 61/94/97 7/7/136 5/5/136
f 5/5/136 63/93/98 61/94/97
f 63/93/101 5/5/137 2/2/137
f 2/2/137 49/87/102 63/93/101
