# File produced by Open Asset Import Library (http://www.assimp.sf.net)
# (assimp v3.1.128981410)

mtllib Pedastol.mtl

# vertex positions
v 141.975266 -7562.375000 40916.855469
v 205.740479 -7562.375000 40916.855469
v 173.857849 -7562.375000 40972.078125
v 110.092651 -7562.375000 40972.078125
v 141.975250 -7562.375000 41027.300781
v 205.740463 -7562.375000 41027.300781
v 237.623062 -7562.375000 40972.078125
v 205.740479 -6656.430664 40916.855469
v 199.364578 -6645.387695 40927.898438
v 224.871368 -6645.387695 40972.078125
v 237.623062 -6656.430664 40972.078125
v 141.975266 -6656.430664 40916.855469
v 148.351135 -6645.387695 40927.898438
v 110.092651 -6656.430664 40972.078125
v 122.844360 -6645.387695 40972.078125
v 141.975250 -6656.430664 41027.300781
v 148.351105 -6645.387695 41016.261719
v 205.740463 -6656.430664 41027.300781
v 199.364578 -6645.387695 41016.261719
v 173.857849 -6645.387695 40972.078125

# UV coordinates
vt 0.325231 0.926545
vt 0.387524 0.881619
vt 0.522780 0.876591
vt 0.522179 0.951259
vt 0.615773 0.862242
vt 0.692846 0.624984
vt 0.527882 0.780575
vt 0.092599 0.075807
vt 0.109866 0.076843
vt 0.166295 0.122346
vt 0.171254 0.137418
vt 0.000000 0.000000
vt 0.059860 0.027654
vt 0.229088 0.069758
vt 0.206483 0.070056
vt 0.224898 0.107514
vt 0.213182 0.102798
vt 0.220809 0.145363
vt 0.206120 0.130532
vt 0.999999 0.000000
vt 0.939293 0.209646
vt 0.853947 0.411988
vt 0.168059 0.083400

# vertex normals
vn 0.000000 -1.000000 0.000000
vn 0.612388 0.707092 -0.353556
vn 0.000000 0.707046 -0.707167
vn -0.612388 0.707092 -0.353556
vn -0.612388 0.707092 0.353556
vn 0.000000 0.707046 0.707167
vn 0.000000 0.707047 0.707167
vn 0.612388 0.707092 0.353556
vn 0.000000 0.000000 -1.000000
vn -0.866026 0.000000 -0.499999
vn -0.866026 0.000000 0.499999
vn 0.000000 0.000000 1.000000
vn 0.866026 0.000000 0.499999
vn 0.866026 0.000000 -0.499999
vn 0.000000 1.000000 0.000000

# Mesh
g pCylinder46
usemtl initialShadingGroup
f 1/1/1 2/2/1 3/3/1
f 4/4/1 1/1/1 3/3/1
f 5/5/1 4/4/1 3/3/1
f 6/6/1 5/5/1 3/3/1
f 7/7/1 6/6/1 3/3/1
f 2/2/1 7/7/1 3/3/1
f 11/11/2 8/8/2 9/9/2
f 9/9/2 10/10/2 11/11/2
f 13/13/3 9/9/3 8/8/3
f 8/8/3 12/12/3 13/13/3
f 15/15/4 13/13/4 12/12/4
f 12/12/4 14/14/4 15/15/4
f 17/17/5 15/15/5 14/14/5
f 14/14/5 16/16/5 17/17/5
f 19/19/6 17/17/6 16/16/7
f 16/16/7 18/18/6 19/19/6
f 10/10/8 19/19/8 18/18/8
f 18/18/8 11/11/8 10/10/8
f 8/8/9 2/2/9 1/1/9
f 1/1/9 12/12/9 8/8/9
f 12/12/10 1/20/10 4/21/10
f 4/21/10 14/14/10 12/12/10
f 14/14/11 4/21/11 5/22/11
f 5/22/11 16/16/11 14/14/11
f 16/16/12 5/22/12 6/6/12
f 6/6/12 18/18/12 16/16/12
f 18/18/13 6/6/13 7/7/13
f 7/7/13 11/11/13 18/18/13
f 11/11/14 7/7/14 2/2/14
f 2/2/14 8/8/14 11/11/14
f 9/9/15 13/13/15 20/23/15
f 13/13/15 15/15/15 20/23/15
f 15/15/15 17/17/15 20/23/15
f 17/17/15 19/19/15 20/23/15
f 19/19/15 10/10/15 20/23/15
f 10/10/15 9/9/15 20/23/15
